#N canvas 0 23 1438 840 10;
#X obj 506 15 adc~ 1;
#X msg 95 203 bang;
#X obj 5 373 -~ 0.5;
#X obj 5 423 cos~;
#X obj 5 456 *~;
#X obj 6 311 phasor~;
#X obj 5 398 *~ 0.5;
#X obj 70 372 *~;
#X msg 111 228 stop;
#X msg 219 201 bang;
#X msg 235 226 stop;
#X obj 630 13 adc~ 2;
#X obj 191 369 -~ 0.5;
#X obj 191 419 cos~;
#X obj 191 452 *~;
#X obj 192 307 phasor~;
#X obj 191 394 *~ 0.5;
#X obj 256 368 *~;
#X obj 681 787 dac~ 1 2;
#X obj 80 43 ctlin 32 0;
#X obj 80 64 sel 127;
#X obj 81 110 bng 15 250 50 0 empty empty empty 17 7 0 10 -262144 -1
-1;
#X obj 163 65 sel 127;
#X obj 162 109 bng 15 250 50 0 empty empty empty 17 7 0 10 -262144
-1 -1;
#X obj 163 44 ctlin 48 0;
#X obj 332 144 timer;
#X obj 331 178 t b f f;
#X obj 335 240 /;
#X msg 313 217 1000;
#X obj 370 205 * 44;
#X floatatom 376 163 5 0 0 0 - - -;
#X obj 239 64 sel 127;
#X obj 238 44 ctlin 64 0;
#X msg 108 107 441000;
#X obj 81 88 t b b b;
#X msg 530 202 bang;
#X obj 440 372 -~ 0.5;
#X obj 440 422 cos~;
#X obj 440 455 *~;
#X obj 441 310 phasor~;
#X obj 440 397 *~ 0.5;
#X obj 505 371 *~;
#X msg 546 227 stop;
#X msg 654 200 bang;
#X msg 670 225 stop;
#X obj 626 368 -~ 0.5;
#X obj 626 418 cos~;
#X obj 626 451 *~;
#X obj 627 306 phasor~;
#X obj 626 393 *~ 0.5;
#X obj 691 367 *~;
#X obj 515 63 sel 127;
#X obj 516 109 bng 15 250 50 0 empty empty empty 17 7 0 10 -262144
-1 -1;
#X obj 598 64 sel 127;
#X obj 597 108 bng 15 250 50 0 empty empty empty 17 7 0 10 -262144
-1 -1;
#X obj 766 152 timer;
#X obj 766 177 t b f f;
#X obj 770 239 /;
#X msg 748 216 1000;
#X obj 805 204 * 44;
#X floatatom 809 157 5 0 0 0 - - -;
#X obj 674 63 sel 127;
#X msg 543 106 441000;
#X obj 516 87 t b b b;
#X obj 750 43 table table20 441000;
#X obj 750 64 table table21 441000;
#X msg 672 108 \; table20 const 0;
#X msg 788 107 \; table21 const 0;
#X obj 515 256 tabwrite~ table20;
#X obj 639 254 tabwrite~ table21;
#X obj 505 423 tabread4~ table20;
#X obj 691 419 tabread4~ table21;
#X obj 515 42 ctlin 33 0;
#X obj 598 43 ctlin 49 0;
#X obj 673 43 ctlin 65 0;
#X msg 964 201 bang;
#X obj 874 371 -~ 0.5;
#X obj 874 421 cos~;
#X obj 874 454 *~;
#X obj 875 309 phasor~;
#X obj 874 396 *~ 0.5;
#X obj 939 370 *~;
#X msg 980 226 stop;
#X msg 1088 199 bang;
#X msg 1104 224 stop;
#X obj 1060 367 -~ 0.5;
#X obj 1060 417 cos~;
#X obj 1060 450 *~;
#X obj 1061 305 phasor~;
#X obj 1060 392 *~ 0.5;
#X obj 1125 366 *~;
#X obj 949 62 sel 127;
#X obj 950 108 bng 15 250 50 0 empty empty empty 17 7 0 10 -262144
-1 -1;
#X obj 1032 63 sel 127;
#X obj 1031 107 bng 15 250 50 0 empty empty empty 17 7 0 10 -262144
-1 -1;
#X obj 1200 151 timer;
#X obj 1200 176 t b f f;
#X obj 1204 238 /;
#X msg 1182 215 1000;
#X obj 1239 203 * 44;
#X floatatom 1243 156 5 0 0 0 - - -;
#X obj 1108 62 sel 127;
#X msg 977 105 441000;
#X obj 950 86 t b b b;
#X obj 1184 42 table table22 441000;
#X obj 1183 63 table table23 441000;
#X obj 939 422 tabread4~ table22;
#X obj 1125 418 tabread4~ table23;
#X obj 949 255 tabwrite~ table22;
#X obj 1073 253 tabwrite~ table23;
#X msg 1106 107 \; table22 const 0;
#X msg 1222 106 \; table23 const 0;
#X obj 949 41 ctlin 34 0;
#X obj 1032 42 ctlin 50 0;
#X obj 1107 42 ctlin 66 0;
#X obj 110 566 *~ 0;
#X obj 143 566 *~ 0;
#X obj 189 507 hsl 128 15 0 127 0 0 empty empty empty -2 -8 0 10 -262144
-1 -1 0 1;
#X obj 186 525 / 127;
#X floatatom 186 543 5 0 0 0 - - -;
#X obj 186 487 ctlin 0 0;
#X obj 482 565 *~ 0;
#X obj 515 565 *~ 0;
#X obj 561 506 hsl 128 15 0 127 0 0 empty empty empty -2 -8 0 10 -262144
-1 -1 0 1;
#X obj 558 524 / 127;
#X floatatom 558 542 5 0 0 0 - - -;
#X obj 558 486 ctlin 1 0;
#X obj 905 553 *~ 0;
#X obj 938 553 *~ 0;
#X obj 984 494 hsl 128 15 0 127 0 0 empty empty empty -2 -8 0 10 -262144
-1 -1 0 1;
#X obj 981 512 / 127;
#X floatatom 981 530 5 0 0 0 - - -;
#X obj 981 474 ctlin 2 0;
#X obj 952 644 *~ 0;
#X obj 985 644 *~ 0;
#X obj 1037 646 hsl 128 15 0 127 0 0 empty empty empty -2 -8 0 10 -262144
-1 -1 0 1;
#X obj 1034 664 / 127;
#X floatatom 1034 682 5 0 0 0 - - -;
#X obj 1034 626 ctlin 7 0;
#N canvas 0 23 979 553 delay 0;
#X floatatom 461 131 0 0 0 0 - - -;
#X obj 446 197 +~;
#X obj 461 175 *~ 0.7;
#X obj 446 227 delwrite~ G02-del 2000;
#X obj 475 401 *~;
#X obj 520 393 hsl 128 15 0 1 0 0 empty empty empty -2 -8 0 10 -262144
-1 -1 0 1;
#X floatatom 516 417 5 0 0 0 - - -;
#X obj 432 366 delread~ G02-del 160;
#X obj 461 153 delread~ G02-del 160;
#X floatatom 278 124 0 0 0 0 - - -;
#X obj 262 188 +~;
#X obj 277 167 *~ 0.7;
#X obj 277 145 delread~ G03-del 160;
#X obj 262 218 delwrite~ G03-del 2000;
#X obj 192 393 *~;
#X obj 237 385 hsl 128 15 0 1 0 0 empty empty empty -2 -8 0 10 -262144
-1 -1 0 1;
#X floatatom 233 409 5 0 0 0 - - -;
#X obj 149 358 delread~ G03-del 160;
#X obj 221 54 inlet~;
#X obj 451 68 inlet~;
#X obj 192 441 outlet~;
#X obj 475 443 outlet~;
#X obj 607 342 / 127;
#X obj 623 81 + 160;
#X obj 623 59 * 10;
#X obj 607 319 ctlin 5 0;
#X obj 623 36 ctlin 21 0;
#X obj 633 138 random 10;
#X obj 631 110 t b f;
#X floatatom 699 138 5 0 0 0 - - -;
#X obj 651 168 +;
#X floatatom 651 191 5 0 0 0 - - -;
#X obj 106 149 random 10;
#X obj 104 121 t b f;
#X floatatom 172 149 5 0 0 0 - - -;
#X obj 124 179 +;
#X floatatom 124 202 5 0 0 0 - - -;
#X connect 0 0 8 0;
#X connect 1 0 3 0;
#X connect 2 0 1 1;
#X connect 4 0 21 0;
#X connect 5 0 6 0;
#X connect 6 0 4 1;
#X connect 7 0 4 0;
#X connect 8 0 2 0;
#X connect 9 0 12 0;
#X connect 10 0 13 0;
#X connect 11 0 10 1;
#X connect 12 0 11 0;
#X connect 14 0 20 0;
#X connect 15 0 16 0;
#X connect 16 0 14 1;
#X connect 17 0 14 0;
#X connect 18 0 10 0;
#X connect 19 0 1 0;
#X connect 22 0 5 0;
#X connect 22 0 15 0;
#X connect 23 0 28 0;
#X connect 23 0 33 0;
#X connect 24 0 23 0;
#X connect 25 0 22 0;
#X connect 26 0 24 0;
#X connect 27 0 30 1;
#X connect 28 0 27 0;
#X connect 28 1 29 0;
#X connect 29 0 30 0;
#X connect 30 0 31 0;
#X connect 31 0 0 0;
#X connect 32 0 35 1;
#X connect 33 0 32 0;
#X connect 33 1 34 0;
#X connect 34 0 35 0;
#X connect 35 0 36 0;
#X connect 36 0 9 0;
#X restore 227 728 pd delay;
#X obj 726 758 hip~ 5;
#X obj 749 562 ctlin 23 0;
#X obj 681 758 hip~ 5;
#X obj 750 601 * 100;
#X obj 750 631 + 20;
#X obj 436 156 ctlin 16 0;
#X floatatom 436 177 5 0 0 0 - - -;
#X floatatom 437 244 5 0 0 0 - - -;
#X floatatom 857 176 5 0 0 0 - - -;
#X floatatom 857 236 5 0 0 0 - - -;
#X obj 857 155 ctlin 17 0;
#X obj 436 197 * 30;
#X obj 857 196 * 30;
#X floatatom 1289 169 5 0 0 0 - - -;
#X floatatom 1289 228 5 0 0 0 - - -;
#X obj 1289 189 * 30;
#X obj 1289 148 ctlin 18 0;
#X obj 1193 603 ctlin 4 0;
#X obj 1272 602 ctlin 20 0;
#X floatatom 1282 644 5 0 0 0 - - -;
#X obj 1281 623 clip 0 100;
#X floatatom 1202 644 5 0 0 0 - - -;
#X obj 1201 623 clip 0 100;
#N canvas 0 23 963 507 reverb1 0;
#X obj 520 105 inlet;
#X obj 452 105 inlet;
#X obj 370 335 line~;
#X obj 232 394 *~;
#X obj 301 395 *~;
#X obj 370 284 dbtorms;
#X obj 370 309 pack 0 30;
#X obj 520 211 pack 0 50;
#X obj 232 419 outlet~;
#X obj 301 419 outlet~;
#X obj 520 162 clip 0 100;
#X obj 452 137 f \$1;
#X obj 520 138 f \$2;
#X obj 625 143 f \$3;
#X obj 696 143 f \$4;
#X obj 367 106 loadbang;
#X obj 369 394 *~;
#X obj 437 395 *~;
#X obj 369 419 outlet~;
#X obj 437 419 outlet~;
#X obj 625 167 moses 1;
#X msg 631 193 3000;
#X obj 705 193 clip 0 100;
#X obj 616 218 f;
#X obj 618 105 inlet;
#X obj 696 109 inlet;
#X obj 705 216 f;
#X obj 705 239 * 0.01;
#X obj 705 263 pack 0 50;
#X text 403 10 control inlets:;
#X text 400 29 1: output level \, dB \, 0-100;
#X text 399 79 4: high frequency damping \, 0-100;
#X text 400 62 3: crossover frequency in Hz. (3000 default);
#X text 400 45 2: liveness \, 0-100 \, usually between 85 and 100;
#X obj 616 242 s \$0-lop;
#N canvas 2 23 918 851 doit 0;
#X obj 218 386 *~;
#X obj 341 396 *~;
#X obj 267 389 *~;
#X obj 305 392 *~;
#X obj 28 175 lop~;
#X obj 27 204 -~;
#X obj 27 291 *~;
#X obj 16 319 +~;
#X obj 75 182 lop~;
#X obj 76 214 -~;
#X obj 77 294 *~;
#X obj 67 318 +~;
#X obj 124 187 lop~;
#X obj 124 214 -~;
#X obj 125 297 *~;
#X obj 116 322 +~;
#X obj 176 191 lop~;
#X obj 175 218 -~;
#X obj 175 301 *~;
#X obj 168 326 +~;
#X obj 15 372 *~;
#X obj 169 383 *~;
#X obj 67 376 *~;
#X obj 115 380 *~;
#X obj 207 160 r \$0-lop;
#X obj 183 246 r \$0-damp;
#X obj 183 271 line~;
#X obj 524 407 *~;
#X obj 631 409 *~;
#X obj 560 408 *~;
#X obj 595 409 *~;
#X obj 377 399 *~;
#X obj 488 406 *~;
#X obj 414 402 *~;
#X obj 451 405 *~;
#X obj 654 354 line~;
#X obj 708 387 r \$0-fb;
#X obj 25 346 inlet~;
#X obj 87 346 inlet~;
#X obj 69 440 +~;
#X obj 105 440 -~;
#X obj 141 440 +~;
#X obj 177 440 -~;
#X obj 214 440 +~;
#X obj 250 440 -~;
#X obj 286 440 +~;
#X obj 322 440 -~;
#X obj 359 440 +~;
#X obj 395 440 -~;
#X obj 431 440 +~;
#X obj 467 440 -~;
#X obj 504 440 +~;
#X obj 540 440 -~;
#X obj 576 440 +~;
#X obj 612 440 -~;
#X obj 69 474 +~;
#X obj 177 474 -~;
#X obj 105 474 +~;
#X obj 141 474 -~;
#X obj 214 474 +~;
#X obj 322 474 -~;
#X obj 250 474 +~;
#X obj 286 474 -~;
#X obj 359 474 +~;
#X obj 467 474 -~;
#X obj 395 474 +~;
#X obj 431 474 -~;
#X obj 504 474 +~;
#X obj 612 474 -~;
#X obj 540 474 +~;
#X obj 576 474 -~;
#X obj 69 518 +~;
#X obj 105 518 +~;
#X obj 322 518 -~;
#X obj 286 518 -~;
#X obj 141 518 +~;
#X obj 177 518 +~;
#X obj 214 518 -~;
#X obj 250 518 -~;
#X obj 360 518 +~;
#X obj 396 518 +~;
#X obj 613 518 -~;
#X obj 577 518 -~;
#X obj 432 518 +~;
#X obj 468 518 +~;
#X obj 505 518 -~;
#X obj 541 518 -~;
#X obj 70 575 +~;
#X obj 106 575 +~;
#X obj 469 575 -~;
#X obj 433 575 -~;
#X obj 142 575 +~;
#X obj 178 575 +~;
#X obj 361 575 -~;
#X obj 397 575 -~;
#X obj 215 575 +~;
#X obj 251 575 +~;
#X obj 287 575 +~;
#X obj 323 575 +~;
#X obj 614 575 -~;
#X obj 578 575 -~;
#X obj 506 575 -~;
#X obj 542 575 -~;
#X obj 628 606 outlet~;
#X obj 698 606 outlet~;
#X obj 768 607 outlet~;
#X obj 838 607 outlet~;
#X obj 17 14 delread~ \$0-del17 10;
#X obj 68 35 delread~ \$0-del18 11.6356;
#X obj 117 56 delread~ \$0-del19 13.4567;
#X obj 171 77 delread~ \$0-del20 16.7345;
#X obj 218 100 delread~ \$0-del21 20.1862;
#X obj 267 121 delread~ \$0-del22 25.7417;
#X obj 304 142 delread~ \$0-del23 31.4693;
#X obj 341 163 delread~ \$0-del24 38.2944;
#X obj 376 184 delread~ \$0-del25 46.6838;
#X obj 414 205 delread~ \$0-del26 55.4567;
#X obj 451 226 delread~ \$0-del27 65.1755;
#X obj 488 247 delread~ \$0-del28 76.8243;
#X obj 524 268 delread~ \$0-del29 88.5623;
#X obj 561 289 delread~ \$0-del30 101.278;
#X obj 595 310 delread~ \$0-del31 115.397;
#X obj 632 331 delread~ \$0-del32 130.502;
#X obj 71 761 delwrite~ \$0-del17 10;
#X obj 106 737 delwrite~ \$0-del18 11.6356;
#X obj 141 715 delwrite~ \$0-del19 13.4567;
#X obj 179 693 delwrite~ \$0-del20 16.7345;
#X obj 215 672 delwrite~ \$0-del21 20.1862;
#X obj 252 650 delwrite~ \$0-del22 25.7417;
#X obj 287 628 delwrite~ \$0-del23 31.4693;
#X obj 323 606 delwrite~ \$0-del24 38.2944;
#X obj 361 776 delwrite~ \$0-del25 46.6838;
#X obj 398 755 delwrite~ \$0-del26 55.4567;
#X obj 434 734 delwrite~ \$0-del27 65.1755;
#X obj 470 713 delwrite~ \$0-del28 76.8243;
#X obj 506 692 delwrite~ \$0-del29 88.5623;
#X obj 542 671 delwrite~ \$0-del30 101.278;
#X obj 579 650 delwrite~ \$0-del31 115.397;
#X obj 614 629 delwrite~ \$0-del32 130.502;
#X connect 0 0 43 0;
#X connect 0 0 44 0;
#X connect 1 0 45 1;
#X connect 1 0 46 1;
#X connect 2 0 43 1;
#X connect 2 0 44 1;
#X connect 3 0 45 0;
#X connect 3 0 46 0;
#X connect 4 0 5 0;
#X connect 5 0 6 0;
#X connect 6 0 7 1;
#X connect 7 0 20 0;
#X connect 8 0 9 0;
#X connect 9 0 10 0;
#X connect 10 0 11 1;
#X connect 11 0 22 0;
#X connect 12 0 13 0;
#X connect 13 0 14 0;
#X connect 14 0 15 1;
#X connect 15 0 23 0;
#X connect 16 0 17 0;
#X connect 17 0 18 0;
#X connect 18 0 19 1;
#X connect 19 0 21 0;
#X connect 20 0 39 0;
#X connect 20 0 40 0;
#X connect 21 0 41 1;
#X connect 21 0 42 1;
#X connect 22 0 40 1;
#X connect 22 0 39 1;
#X connect 23 0 41 0;
#X connect 23 0 42 0;
#X connect 24 0 16 1;
#X connect 24 0 12 1;
#X connect 24 0 8 1;
#X connect 24 0 4 1;
#X connect 25 0 26 0;
#X connect 26 0 18 1;
#X connect 26 0 14 1;
#X connect 26 0 10 1;
#X connect 26 0 6 1;
#X connect 27 0 51 0;
#X connect 27 0 52 0;
#X connect 28 0 53 1;
#X connect 28 0 54 1;
#X connect 29 0 51 1;
#X connect 29 0 52 1;
#X connect 30 0 53 0;
#X connect 30 0 54 0;
#X connect 31 0 47 0;
#X connect 31 0 48 0;
#X connect 32 0 49 1;
#X connect 32 0 50 1;
#X connect 33 0 47 1;
#X connect 33 0 48 1;
#X connect 34 0 49 0;
#X connect 34 0 50 0;
#X connect 35 0 2 1;
#X connect 35 0 0 1;
#X connect 35 0 3 1;
#X connect 35 0 1 1;
#X connect 35 0 21 1;
#X connect 35 0 23 1;
#X connect 35 0 22 1;
#X connect 35 0 20 1;
#X connect 35 0 31 1;
#X connect 35 0 34 1;
#X connect 35 0 32 1;
#X connect 35 0 27 1;
#X connect 35 0 29 1;
#X connect 35 0 30 1;
#X connect 35 0 28 1;
#X connect 35 0 33 1;
#X connect 36 0 35 0;
#X connect 37 0 20 0;
#X connect 38 0 22 0;
#X connect 39 0 55 0;
#X connect 39 0 58 0;
#X connect 40 0 57 0;
#X connect 40 0 56 0;
#X connect 41 0 55 1;
#X connect 41 0 58 1;
#X connect 42 0 57 1;
#X connect 42 0 56 1;
#X connect 43 0 59 0;
#X connect 43 0 62 0;
#X connect 44 0 61 0;
#X connect 44 0 60 0;
#X connect 45 0 59 1;
#X connect 45 0 62 1;
#X connect 46 0 61 1;
#X connect 46 0 60 1;
#X connect 47 0 63 0;
#X connect 47 0 66 0;
#X connect 48 0 65 0;
#X connect 48 0 64 0;
#X connect 49 0 63 1;
#X connect 49 0 66 1;
#X connect 50 0 65 1;
#X connect 50 0 64 1;
#X connect 51 0 67 0;
#X connect 51 0 70 0;
#X connect 52 0 69 0;
#X connect 52 0 68 0;
#X connect 53 0 67 1;
#X connect 53 0 70 1;
#X connect 54 0 69 1;
#X connect 54 0 68 1;
#X connect 55 0 71 0;
#X connect 55 0 77 0;
#X connect 56 0 76 0;
#X connect 56 0 73 0;
#X connect 57 0 72 0;
#X connect 57 0 78 0;
#X connect 58 0 75 0;
#X connect 58 0 74 0;
#X connect 59 0 71 1;
#X connect 59 0 77 1;
#X connect 60 0 76 1;
#X connect 60 0 73 1;
#X connect 61 0 72 1;
#X connect 61 0 78 1;
#X connect 62 0 75 1;
#X connect 62 0 74 1;
#X connect 63 0 79 0;
#X connect 63 0 85 0;
#X connect 64 0 84 0;
#X connect 64 0 81 0;
#X connect 65 0 80 0;
#X connect 65 0 86 0;
#X connect 66 0 83 0;
#X connect 66 0 82 0;
#X connect 67 0 79 1;
#X connect 67 0 85 1;
#X connect 68 0 84 1;
#X connect 68 0 81 1;
#X connect 69 0 80 1;
#X connect 69 0 86 1;
#X connect 70 0 83 1;
#X connect 70 0 82 1;
#X connect 71 0 87 0;
#X connect 71 0 93 0;
#X connect 72 0 88 0;
#X connect 72 0 94 0;
#X connect 73 0 98 0;
#X connect 73 0 99 0;
#X connect 74 0 97 0;
#X connect 74 0 100 0;
#X connect 75 0 91 0;
#X connect 75 0 90 0;
#X connect 76 0 92 0;
#X connect 76 0 89 0;
#X connect 77 0 95 0;
#X connect 77 0 101 0;
#X connect 78 0 96 0;
#X connect 78 0 102 0;
#X connect 79 0 93 1;
#X connect 79 0 87 1;
#X connect 80 0 94 1;
#X connect 80 0 88 1;
#X connect 81 0 99 1;
#X connect 81 0 98 1;
#X connect 82 0 100 1;
#X connect 82 0 97 1;
#X connect 83 0 90 1;
#X connect 83 0 91 1;
#X connect 84 0 89 1;
#X connect 84 0 92 1;
#X connect 85 0 101 1;
#X connect 85 0 95 1;
#X connect 86 0 102 1;
#X connect 86 0 96 1;
#X connect 87 0 123 0;
#X connect 88 0 124 0;
#X connect 89 0 134 0;
#X connect 90 0 133 0;
#X connect 91 0 125 0;
#X connect 92 0 126 0;
#X connect 93 0 131 0;
#X connect 94 0 132 0;
#X connect 95 0 127 0;
#X connect 96 0 128 0;
#X connect 97 0 129 0;
#X connect 98 0 130 0;
#X connect 99 0 106 0;
#X connect 99 0 138 0;
#X connect 100 0 105 0;
#X connect 100 0 137 0;
#X connect 101 0 103 0;
#X connect 101 0 135 0;
#X connect 102 0 104 0;
#X connect 102 0 136 0;
#X connect 107 0 4 0;
#X connect 107 0 5 1;
#X connect 107 0 7 0;
#X connect 108 0 8 0;
#X connect 108 0 9 1;
#X connect 108 0 11 0;
#X connect 109 0 15 0;
#X connect 109 0 12 0;
#X connect 109 0 13 1;
#X connect 110 0 19 0;
#X connect 110 0 17 1;
#X connect 110 0 16 0;
#X connect 111 0 0 0;
#X connect 112 0 2 0;
#X connect 113 0 3 0;
#X connect 114 0 1 0;
#X connect 115 0 31 0;
#X connect 116 0 33 0;
#X connect 117 0 34 0;
#X connect 118 0 32 0;
#X connect 119 0 27 0;
#X connect 120 0 29 0;
#X connect 121 0 30 0;
#X connect 122 0 28 0;
#X restore 164 317 pd doit;
#X obj 164 242 inlet~;
#X obj 221 242 inlet~;
#X obj 520 241 s \$0-fb;
#X obj 705 290 s \$0-damp;
#X text 57 490 rev3 - 16-delay reverberator. Like rev2~ but presumably
higher-quality and takes two audio inputs.;
#X obj 520 187 / 400;
#N canvas 2 52 400 576 early 0;
#X obj 84 10 inlet~;
#X obj 159 10 inlet~;
#N canvas 19 394 468 181 write1 0;
#X obj 83 25 inlet~;
#X obj 84 99 outlet~;
#X obj 116 66 delwrite~ \$0-early5 1.42763;
#X connect 0 0 1 0;
#X connect 0 0 2 0;
#X restore 160 67 pd write1;
#N canvas 323 263 472 159 read1 0;
#X obj 77 12 inlet~;
#X obj 78 81 outlet~;
#X obj 78 56 delread~ \$0-early5 1.42763;
#X connect 2 0 1 0;
#X restore 160 92 pd read1;
#X obj 84 121 +~;
#X obj 138 122 -~;
#X obj 82 205 +~;
#X obj 136 206 -~;
#X obj 84 289 +~;
#X obj 138 290 -~;
#N canvas 20 395 468 181 write2 0;
#X obj 83 25 inlet~;
#X obj 84 99 outlet~;
#X obj 116 65 delwrite~ \$0-early6 3.23873;
#X connect 0 0 1 0;
#X connect 0 0 2 0;
#X restore 158 151 pd write2;
#N canvas 322 262 472 159 read2 0;
#X obj 77 12 inlet~;
#X obj 78 81 outlet~;
#X obj 78 56 delread~ \$0-early6 3.23873;
#X connect 2 0 1 0;
#X restore 158 176 pd read2;
#N canvas 19 394 468 181 write3 0;
#X obj 83 25 inlet~;
#X obj 84 99 outlet~;
#X obj 116 66 delwrite~ \$0-early7 5.2345;
#X connect 0 0 1 0;
#X connect 0 0 2 0;
#X restore 160 236 pd write3;
#N canvas 323 262 472 159 read3 0;
#X obj 77 12 inlet~;
#X obj 78 81 outlet~;
#X obj 78 56 delread~ \$0-early7 5.2345;
#X connect 2 0 1 0;
#X restore 160 260 pd read3;
#N canvas 20 395 468 181 write4 0;
#X obj 83 25 inlet~;
#X obj 84 99 outlet~;
#X obj 117 66 delwrite~ \$0-early8 7.82312;
#X connect 0 0 1 0;
#X connect 0 0 2 0;
#X restore 153 320 pd write4;
#N canvas 321 261 472 159 read4 0;
#X obj 77 12 inlet~;
#X obj 78 81 outlet~;
#X obj 78 56 delread~ \$0-early8 7.82312;
#X connect 2 0 1 0;
#X restore 153 345 pd read4;
#X obj 84 406 outlet~;
#X obj 174 409 outlet~;
#X obj 84 381 *~ 0.3535;
#X obj 173 384 *~ 0.3535;
#X connect 0 0 4 0;
#X connect 0 0 5 0;
#X connect 1 0 2 0;
#X connect 2 0 3 0;
#X connect 3 0 5 1;
#X connect 3 0 4 1;
#X connect 4 0 6 0;
#X connect 4 0 7 0;
#X connect 5 0 10 0;
#X connect 6 0 8 0;
#X connect 6 0 9 0;
#X connect 7 0 12 0;
#X connect 8 0 18 0;
#X connect 9 0 14 0;
#X connect 10 0 11 0;
#X connect 11 0 7 1;
#X connect 11 0 6 1;
#X connect 12 0 13 0;
#X connect 13 0 9 1;
#X connect 13 0 8 1;
#X connect 14 0 15 0;
#X connect 15 0 19 0;
#X connect 18 0 16 0;
#X connect 19 0 17 0;
#X restore 163 279 pd early;
#X connect 0 0 12 0;
#X connect 1 0 11 0;
#X connect 2 0 3 1;
#X connect 2 0 4 1;
#X connect 2 0 16 1;
#X connect 2 0 17 1;
#X connect 3 0 8 0;
#X connect 4 0 9 0;
#X connect 5 0 6 0;
#X connect 6 0 2 0;
#X connect 7 0 38 0;
#X connect 10 0 41 0;
#X connect 11 0 5 0;
#X connect 12 0 10 0;
#X connect 13 0 20 0;
#X connect 14 0 22 0;
#X connect 15 0 11 0;
#X connect 15 0 12 0;
#X connect 15 0 13 0;
#X connect 15 0 14 0;
#X connect 16 0 18 0;
#X connect 17 0 19 0;
#X connect 20 0 21 0;
#X connect 20 1 23 0;
#X connect 21 0 23 0;
#X connect 22 0 26 0;
#X connect 23 0 34 0;
#X connect 24 0 23 0;
#X connect 25 0 14 0;
#X connect 26 0 27 0;
#X connect 27 0 28 0;
#X connect 28 0 39 0;
#X connect 35 0 3 0;
#X connect 35 1 4 0;
#X connect 35 2 16 0;
#X connect 35 3 17 0;
#X connect 36 0 42 0;
#X connect 37 0 42 1;
#X connect 41 0 7 0;
#X connect 42 0 35 0;
#X connect 42 1 35 1;
#X restore 1178 682 pd reverb1;
#N canvas 0 23 963 507 reverb2 0;
#X obj 520 105 inlet;
#X obj 452 105 inlet;
#X obj 370 335 line~;
#X obj 232 394 *~;
#X obj 301 395 *~;
#X obj 370 284 dbtorms;
#X obj 370 309 pack 0 30;
#X obj 520 211 pack 0 50;
#X obj 232 419 outlet~;
#X obj 301 419 outlet~;
#X obj 520 162 clip 0 100;
#X obj 452 137 f \$1;
#X obj 520 138 f \$2;
#X obj 625 143 f \$3;
#X obj 696 143 f \$4;
#X obj 367 106 loadbang;
#X obj 369 394 *~;
#X obj 437 395 *~;
#X obj 369 419 outlet~;
#X obj 437 419 outlet~;
#X obj 625 167 moses 1;
#X msg 631 193 3000;
#X obj 705 193 clip 0 100;
#X obj 616 218 f;
#X obj 618 105 inlet;
#X obj 696 109 inlet;
#X obj 705 216 f;
#X obj 705 239 * 0.01;
#X obj 705 263 pack 0 50;
#X text 403 10 control inlets:;
#X text 400 29 1: output level \, dB \, 0-100;
#X text 399 79 4: high frequency damping \, 0-100;
#X text 400 62 3: crossover frequency in Hz. (3000 default);
#X text 400 45 2: liveness \, 0-100 \, usually between 85 and 100;
#X obj 616 242 s \$0-lop;
#N canvas 2 23 918 851 doit 0;
#X obj 218 386 *~;
#X obj 341 396 *~;
#X obj 267 389 *~;
#X obj 305 392 *~;
#X obj 28 175 lop~;
#X obj 27 204 -~;
#X obj 27 291 *~;
#X obj 16 319 +~;
#X obj 75 182 lop~;
#X obj 76 214 -~;
#X obj 77 294 *~;
#X obj 67 318 +~;
#X obj 124 187 lop~;
#X obj 124 214 -~;
#X obj 125 297 *~;
#X obj 116 322 +~;
#X obj 176 191 lop~;
#X obj 175 218 -~;
#X obj 175 301 *~;
#X obj 168 326 +~;
#X obj 15 372 *~;
#X obj 169 383 *~;
#X obj 67 376 *~;
#X obj 115 380 *~;
#X obj 207 160 r \$0-lop;
#X obj 183 246 r \$0-damp;
#X obj 183 271 line~;
#X obj 17 14 delread~ \$0-del1 10;
#X obj 117 56 delread~ \$0-del3 13.4567;
#X obj 68 35 delread~ \$0-del2 11.6356;
#X obj 171 77 delread~ \$0-del4 16.7345;
#X obj 524 407 *~;
#X obj 631 409 *~;
#X obj 560 408 *~;
#X obj 595 409 *~;
#X obj 377 399 *~;
#X obj 488 406 *~;
#X obj 414 402 *~;
#X obj 451 405 *~;
#X obj 654 354 line~;
#X obj 708 387 r \$0-fb;
#X obj 218 100 delread~ \$0-del5 20.1862;
#X obj 267 121 delread~ \$0-del6 25.7417;
#X obj 304 142 delread~ \$0-del7 31.4693;
#X obj 341 163 delread~ \$0-del8 38.2944;
#X obj 376 184 delread~ \$0-del9 46.6838;
#X obj 414 205 delread~ \$0-del10 55.4567;
#X obj 488 247 delread~ \$0-del12 76.8243;
#X obj 524 268 delread~ \$0-del13 88.5623;
#X obj 561 289 delread~ \$0-del14 101.278;
#X obj 595 310 delread~ \$0-del15 115.397;
#X obj 632 331 delread~ \$0-del16 130.502;
#X obj 25 346 inlet~;
#X obj 87 346 inlet~;
#X obj 69 440 +~;
#X obj 105 440 -~;
#X obj 141 440 +~;
#X obj 177 440 -~;
#X obj 214 440 +~;
#X obj 250 440 -~;
#X obj 286 440 +~;
#X obj 322 440 -~;
#X obj 359 440 +~;
#X obj 395 440 -~;
#X obj 431 440 +~;
#X obj 467 440 -~;
#X obj 504 440 +~;
#X obj 540 440 -~;
#X obj 576 440 +~;
#X obj 612 440 -~;
#X obj 69 474 +~;
#X obj 177 474 -~;
#X obj 105 474 +~;
#X obj 141 474 -~;
#X obj 214 474 +~;
#X obj 322 474 -~;
#X obj 250 474 +~;
#X obj 286 474 -~;
#X obj 359 474 +~;
#X obj 467 474 -~;
#X obj 395 474 +~;
#X obj 431 474 -~;
#X obj 504 474 +~;
#X obj 612 474 -~;
#X obj 540 474 +~;
#X obj 576 474 -~;
#X obj 69 518 +~;
#X obj 105 518 +~;
#X obj 322 518 -~;
#X obj 286 518 -~;
#X obj 141 518 +~;
#X obj 177 518 +~;
#X obj 214 518 -~;
#X obj 250 518 -~;
#X obj 360 518 +~;
#X obj 396 518 +~;
#X obj 613 518 -~;
#X obj 577 518 -~;
#X obj 432 518 +~;
#X obj 468 518 +~;
#X obj 505 518 -~;
#X obj 541 518 -~;
#X obj 70 575 +~;
#X obj 106 575 +~;
#X obj 469 575 -~;
#X obj 433 575 -~;
#X obj 142 575 +~;
#X obj 178 575 +~;
#X obj 361 575 -~;
#X obj 397 575 -~;
#X obj 215 575 +~;
#X obj 251 575 +~;
#X obj 287 575 +~;
#X obj 323 575 +~;
#X obj 614 575 -~;
#X obj 578 575 -~;
#X obj 506 575 -~;
#X obj 542 575 -~;
#X obj 628 606 outlet~;
#X obj 698 606 outlet~;
#X obj 768 607 outlet~;
#X obj 838 607 outlet~;
#X obj 451 226 delread~ \$0-del11 65.1755;
#X obj 614 629 delwrite~ \$0-del16 130.502;
#X obj 361 776 delwrite~ \$0-del9 46.6838;
#X obj 398 755 delwrite~ \$0-del10 55.4567;
#X obj 434 734 delwrite~ \$0-del11 65.1755;
#X obj 470 713 delwrite~ \$0-del12 76.8243;
#X obj 506 692 delwrite~ \$0-del13 88.5623;
#X obj 542 671 delwrite~ \$0-del14 101.278;
#X obj 579 650 delwrite~ \$0-del15 115.397;
#X obj 323 606 delwrite~ \$0-del8 38.2944;
#X obj 287 628 delwrite~ \$0-del7 31.4693;
#X obj 252 650 delwrite~ \$0-del6 25.7417;
#X obj 215 672 delwrite~ \$0-del5 20.1862;
#X obj 71 761 delwrite~ \$0-del1 10;
#X obj 106 737 delwrite~ \$0-del2 11.6356;
#X obj 141 715 delwrite~ \$0-del3 13.4567;
#X obj 179 693 delwrite~ \$0-del4 16.7345;
#X connect 0 0 58 0;
#X connect 0 0 59 0;
#X connect 1 0 60 1;
#X connect 1 0 61 1;
#X connect 2 0 58 1;
#X connect 2 0 59 1;
#X connect 3 0 60 0;
#X connect 3 0 61 0;
#X connect 4 0 5 0;
#X connect 5 0 6 0;
#X connect 6 0 7 1;
#X connect 7 0 20 0;
#X connect 8 0 9 0;
#X connect 9 0 10 0;
#X connect 10 0 11 1;
#X connect 11 0 22 0;
#X connect 12 0 13 0;
#X connect 13 0 14 0;
#X connect 14 0 15 1;
#X connect 15 0 23 0;
#X connect 16 0 17 0;
#X connect 17 0 18 0;
#X connect 18 0 19 1;
#X connect 19 0 21 0;
#X connect 20 0 54 0;
#X connect 20 0 55 0;
#X connect 21 0 56 1;
#X connect 21 0 57 1;
#X connect 22 0 55 1;
#X connect 22 0 54 1;
#X connect 23 0 56 0;
#X connect 23 0 57 0;
#X connect 24 0 16 1;
#X connect 24 0 12 1;
#X connect 24 0 8 1;
#X connect 24 0 4 1;
#X connect 25 0 26 0;
#X connect 26 0 18 1;
#X connect 26 0 14 1;
#X connect 26 0 10 1;
#X connect 26 0 6 1;
#X connect 27 0 4 0;
#X connect 27 0 5 1;
#X connect 27 0 7 0;
#X connect 28 0 15 0;
#X connect 28 0 12 0;
#X connect 28 0 13 1;
#X connect 29 0 8 0;
#X connect 29 0 9 1;
#X connect 29 0 11 0;
#X connect 30 0 19 0;
#X connect 30 0 17 1;
#X connect 30 0 16 0;
#X connect 31 0 66 0;
#X connect 31 0 67 0;
#X connect 32 0 68 1;
#X connect 32 0 69 1;
#X connect 33 0 66 1;
#X connect 33 0 67 1;
#X connect 34 0 68 0;
#X connect 34 0 69 0;
#X connect 35 0 62 0;
#X connect 35 0 63 0;
#X connect 36 0 64 1;
#X connect 36 0 65 1;
#X connect 37 0 62 1;
#X connect 37 0 63 1;
#X connect 38 0 64 0;
#X connect 38 0 65 0;
#X connect 39 0 2 1;
#X connect 39 0 0 1;
#X connect 39 0 3 1;
#X connect 39 0 1 1;
#X connect 39 0 21 1;
#X connect 39 0 23 1;
#X connect 39 0 22 1;
#X connect 39 0 20 1;
#X connect 39 0 35 1;
#X connect 39 0 38 1;
#X connect 39 0 36 1;
#X connect 39 0 31 1;
#X connect 39 0 33 1;
#X connect 39 0 34 1;
#X connect 39 0 32 1;
#X connect 39 0 37 1;
#X connect 40 0 39 0;
#X connect 41 0 0 0;
#X connect 42 0 2 0;
#X connect 43 0 3 0;
#X connect 44 0 1 0;
#X connect 45 0 35 0;
#X connect 46 0 37 0;
#X connect 47 0 36 0;
#X connect 48 0 31 0;
#X connect 49 0 33 0;
#X connect 50 0 34 0;
#X connect 51 0 32 0;
#X connect 52 0 20 0;
#X connect 53 0 22 0;
#X connect 54 0 70 0;
#X connect 54 0 73 0;
#X connect 55 0 72 0;
#X connect 55 0 71 0;
#X connect 56 0 70 1;
#X connect 56 0 73 1;
#X connect 57 0 72 1;
#X connect 57 0 71 1;
#X connect 58 0 74 0;
#X connect 58 0 77 0;
#X connect 59 0 76 0;
#X connect 59 0 75 0;
#X connect 60 0 74 1;
#X connect 60 0 77 1;
#X connect 61 0 76 1;
#X connect 61 0 75 1;
#X connect 62 0 78 0;
#X connect 62 0 81 0;
#X connect 63 0 80 0;
#X connect 63 0 79 0;
#X connect 64 0 78 1;
#X connect 64 0 81 1;
#X connect 65 0 80 1;
#X connect 65 0 79 1;
#X connect 66 0 82 0;
#X connect 66 0 85 0;
#X connect 67 0 84 0;
#X connect 67 0 83 0;
#X connect 68 0 82 1;
#X connect 68 0 85 1;
#X connect 69 0 84 1;
#X connect 69 0 83 1;
#X connect 70 0 86 0;
#X connect 70 0 92 0;
#X connect 71 0 91 0;
#X connect 71 0 88 0;
#X connect 72 0 87 0;
#X connect 72 0 93 0;
#X connect 73 0 90 0;
#X connect 73 0 89 0;
#X connect 74 0 86 1;
#X connect 74 0 92 1;
#X connect 75 0 91 1;
#X connect 75 0 88 1;
#X connect 76 0 87 1;
#X connect 76 0 93 1;
#X connect 77 0 90 1;
#X connect 77 0 89 1;
#X connect 78 0 94 0;
#X connect 78 0 100 0;
#X connect 79 0 99 0;
#X connect 79 0 96 0;
#X connect 80 0 95 0;
#X connect 80 0 101 0;
#X connect 81 0 98 0;
#X connect 81 0 97 0;
#X connect 82 0 94 1;
#X connect 82 0 100 1;
#X connect 83 0 99 1;
#X connect 83 0 96 1;
#X connect 84 0 95 1;
#X connect 84 0 101 1;
#X connect 85 0 98 1;
#X connect 85 0 97 1;
#X connect 86 0 102 0;
#X connect 86 0 108 0;
#X connect 87 0 103 0;
#X connect 87 0 109 0;
#X connect 88 0 113 0;
#X connect 88 0 114 0;
#X connect 89 0 112 0;
#X connect 89 0 115 0;
#X connect 90 0 106 0;
#X connect 90 0 105 0;
#X connect 91 0 107 0;
#X connect 91 0 104 0;
#X connect 92 0 110 0;
#X connect 92 0 116 0;
#X connect 93 0 111 0;
#X connect 93 0 117 0;
#X connect 94 0 108 1;
#X connect 94 0 102 1;
#X connect 95 0 109 1;
#X connect 95 0 103 1;
#X connect 96 0 114 1;
#X connect 96 0 113 1;
#X connect 97 0 115 1;
#X connect 97 0 112 1;
#X connect 98 0 105 1;
#X connect 98 0 106 1;
#X connect 99 0 104 1;
#X connect 99 0 107 1;
#X connect 100 0 116 1;
#X connect 100 0 110 1;
#X connect 101 0 117 1;
#X connect 101 0 111 1;
#X connect 102 0 135 0;
#X connect 103 0 136 0;
#X connect 104 0 127 0;
#X connect 105 0 126 0;
#X connect 106 0 137 0;
#X connect 107 0 138 0;
#X connect 108 0 124 0;
#X connect 109 0 125 0;
#X connect 110 0 134 0;
#X connect 111 0 133 0;
#X connect 112 0 132 0;
#X connect 113 0 131 0;
#X connect 114 0 121 0;
#X connect 114 0 123 0;
#X connect 115 0 120 0;
#X connect 115 0 130 0;
#X connect 116 0 118 0;
#X connect 116 0 128 0;
#X connect 117 0 119 0;
#X connect 117 0 129 0;
#X connect 122 0 38 0;
#X restore 164 317 pd doit;
#X obj 164 242 inlet~;
#X obj 221 242 inlet~;
#X obj 520 241 s \$0-fb;
#X obj 705 290 s \$0-damp;
#X text 57 490 rev3 - 16-delay reverberator. Like rev2~ but presumably
higher-quality and takes two audio inputs.;
#X obj 520 187 / 400;
#N canvas 2 52 400 576 early 0;
#X obj 84 10 inlet~;
#X obj 159 10 inlet~;
#N canvas 19 394 468 181 write1 0;
#X obj 83 25 inlet~;
#X obj 116 66 delwrite~ \$0-early1 1.42763;
#X obj 84 99 outlet~;
#X connect 0 0 1 0;
#X connect 0 0 2 0;
#X restore 160 67 pd write1;
#N canvas 323 263 472 159 read1 0;
#X obj 77 12 inlet~;
#X obj 78 56 delread~ \$0-early1 1.42763;
#X obj 78 81 outlet~;
#X connect 1 0 2 0;
#X restore 160 92 pd read1;
#X obj 84 121 +~;
#X obj 138 122 -~;
#X obj 82 205 +~;
#X obj 136 206 -~;
#X obj 84 289 +~;
#X obj 138 290 -~;
#N canvas 20 395 468 181 write2 0;
#X obj 83 25 inlet~;
#X obj 84 99 outlet~;
#X obj 116 65 delwrite~ \$0-early2 3.23873;
#X connect 0 0 1 0;
#X connect 0 0 2 0;
#X restore 158 151 pd write2;
#N canvas 322 262 472 159 read2 0;
#X obj 77 12 inlet~;
#X obj 78 81 outlet~;
#X obj 78 56 delread~ \$0-early2 3.23873;
#X connect 2 0 1 0;
#X restore 158 176 pd read2;
#N canvas 19 394 468 181 write3 0;
#X obj 83 25 inlet~;
#X obj 84 99 outlet~;
#X obj 116 66 delwrite~ \$0-early3 5.2345;
#X connect 0 0 1 0;
#X connect 0 0 2 0;
#X restore 160 236 pd write3;
#N canvas 322 262 472 159 read3 0;
#X obj 77 12 inlet~;
#X obj 78 81 outlet~;
#X obj 78 56 delread~ \$0-early3 5.2345;
#X connect 2 0 1 0;
#X restore 160 260 pd read3;
#N canvas 20 395 468 181 write4 0;
#X obj 83 25 inlet~;
#X obj 84 99 outlet~;
#X obj 117 66 delwrite~ \$0-early4 7.82312;
#X connect 0 0 1 0;
#X connect 0 0 2 0;
#X restore 153 320 pd write4;
#N canvas 321 261 472 159 read4 0;
#X obj 77 12 inlet~;
#X obj 78 81 outlet~;
#X obj 78 56 delread~ \$0-early4 7.82312;
#X connect 2 0 1 0;
#X restore 153 345 pd read4;
#X obj 84 406 outlet~;
#X obj 174 409 outlet~;
#X obj 84 381 *~ 0.3535;
#X obj 173 384 *~ 0.3535;
#X connect 0 0 4 0;
#X connect 0 0 5 0;
#X connect 1 0 2 0;
#X connect 2 0 3 0;
#X connect 3 0 5 1;
#X connect 3 0 4 1;
#X connect 4 0 6 0;
#X connect 4 0 7 0;
#X connect 5 0 10 0;
#X connect 6 0 8 0;
#X connect 6 0 9 0;
#X connect 7 0 12 0;
#X connect 8 0 18 0;
#X connect 9 0 14 0;
#X connect 10 0 11 0;
#X connect 11 0 7 1;
#X connect 11 0 6 1;
#X connect 12 0 13 0;
#X connect 13 0 9 1;
#X connect 13 0 8 1;
#X connect 14 0 15 0;
#X connect 15 0 19 0;
#X connect 18 0 16 0;
#X connect 19 0 17 0;
#X restore 163 279 pd early;
#X connect 0 0 12 0;
#X connect 1 0 11 0;
#X connect 2 0 3 1;
#X connect 2 0 4 1;
#X connect 2 0 16 1;
#X connect 2 0 17 1;
#X connect 3 0 8 0;
#X connect 4 0 9 0;
#X connect 5 0 6 0;
#X connect 6 0 2 0;
#X connect 7 0 38 0;
#X connect 10 0 41 0;
#X connect 11 0 5 0;
#X connect 12 0 10 0;
#X connect 13 0 20 0;
#X connect 14 0 22 0;
#X connect 15 0 11 0;
#X connect 15 0 12 0;
#X connect 15 0 13 0;
#X connect 15 0 14 0;
#X connect 16 0 18 0;
#X connect 17 0 19 0;
#X connect 20 0 21 0;
#X connect 20 1 23 0;
#X connect 21 0 23 0;
#X connect 22 0 26 0;
#X connect 23 0 34 0;
#X connect 24 0 23 0;
#X connect 25 0 14 0;
#X connect 26 0 27 0;
#X connect 27 0 28 0;
#X connect 28 0 39 0;
#X connect 35 0 3 0;
#X connect 35 1 4 0;
#X connect 35 2 16 0;
#X connect 35 3 17 0;
#X connect 36 0 42 0;
#X connect 37 0 42 1;
#X connect 41 0 7 0;
#X connect 42 0 35 0;
#X connect 42 1 35 1;
#X restore 1248 682 pd reverb2;
#X obj 80 257 tabwrite~ loop1L;
#X obj 204 255 tabwrite~ loop1R;
#X obj 315 44 table loop1L 441000;
#X msg 237 109 \; loop1L const 0;
#X obj 70 423 tabread4~ loop1L;
#X msg 353 108 \; loop1R const 0;
#X obj 315 65 table loop1R 441000;
#X obj 256 419 tabread4~ loop1R;
#X floatatom 805 615 5 0 0 0 - - -;
#X floatatom 750 650 5 0 0 0 - - -;
#X obj 444 222 + 200;
#X obj 884 216 + 200;
#X obj 1312 209 + 200;
#N canvas 0 23 1180 673 pitchshifter 0;
#X floatatom 19 87 0 0 0 0 - - -;
#X obj 82 358 *~;
#X obj 205 295 line~;
#X floatatom 237 147 0 0 0 0 - - -;
#X text 68 9 PITCH SHIFTER;
#X obj 205 269 pack 0 200;
#X obj 237 121 r window;
#X obj 19 61 r transpose;
#X obj 19 143 exp;
#X floatatom 19 169 6 0 0 0 - - -;
#X obj 19 259 /;
#X obj 146 189 * 0.001;
#X obj 314 365 line~;
#X obj 314 340 pack 0 200;
#X floatatom 314 289 0 0 0 0 - - -;
#X obj 314 263 r delay;
#X obj 82 384 +~;
#X obj 19 410 cos~;
#X obj 19 437 *~;
#X obj 19 466 +~;
#X obj 106 317 wrap~;
#X obj 251 360 *~;
#X obj 251 393 +~;
#X obj 188 420 cos~;
#X obj 188 447 *~;
#X msg 503 70 \; transpose 0 \; window 100 \; delay 0;
#X obj 503 44 loadbang;
#X obj 146 216 t b f;
#X floatatom 19 285 6 0 0 0 - - -;
#X obj 106 290 +~ 0.5;
#X obj 19 358 -~ 0.5;
#X obj 19 384 *~ 0.5;
#X obj 188 359 -~ 0.5;
#X obj 188 392 *~ 0.5;
#X obj 19 196 - 1;
#X obj 19 117 * 0.05776;
#X obj 19 222 * -1;
#X text 53 86 <-- transposition;
#X text 96 99 (halftones);
#X text 82 163 speed;
#X text 81 177 change;
#X text 281 146 <--window (msec);
#X text 54 252 tape head;
#X obj 19 316 phasor~;
#X obj 314 316 max 1.5;
#X text 317 222 delay;
#X text 314 240 (msec);
#X obj 237 174 max 1;
#X text 55 265 rotation freq;
#X obj 82 410 vd~ G09-del;
#X obj 251 422 vd~ G09-del;
#X obj 699 601 delwrite~ G09-del 5000;
#X obj 22 499 outlet~;
#X obj 79 499 outlet~;
#N canvas 0 0 450 300 (subpatch) 0;
#X array array1 155944 float 0;
#X coords 0 1 155943 -1 200 150 1;
#X restore 710 137 graph;
#X obj 699 514 tabread4~ array1;
#X obj 699 329 r totsamps;
#X obj 699 409 /;
#X obj 699 461 *~ 0;
#X obj 699 435 phasor~ 0;
#X obj 699 488 +~ 1;
#X msg 699 382 44100;
#X obj 699 356 t b f;
#X obj 742 465 r totsamps;
#X text 713 534 sample loop for;
#X text 713 551 test signal;
#X obj 1066 586 s totsamps;
#X obj 904 521 tabwrite~ array1;
#X obj 870 368 inlet~;
#X msg 922 452 bang;
#X msg 948 480 stop;
#X obj 1017 347 timer;
#X obj 1017 372 t b f f;
#X obj 1021 434 /;
#X msg 999 411 1000;
#X obj 1056 399 * 44;
#X floatatom 1060 352 5 0 0 0 - - -;
#X floatatom 1106 365 5 0 0 0 - - -;
#X floatatom 1106 424 5 0 0 0 - - -;
#X obj 1106 385 * 30;
#X obj 1129 405 + 200;
#X obj 1106 344 ctlin 19 0;
#X obj 1005 317 bng 15 250 50 0 empty empty empty 17 7 0 10 -262144
-1 -1;
#X obj 1036 317 bng 15 250 50 0 empty empty empty 17 7 0 10 -262144
-1 -1;
#X floatatom 1022 478 0 0 0 0 - - -;
#X obj 949 62 sel 127;
#X obj 1032 63 sel 127;
#X obj 1104 68 sel 127;
#X obj 949 41 ctlin 35 0;
#X obj 1032 42 ctlin 51 0;
#X obj 1107 42 ctlin 67 0;
#X msg 1094 111 \; array1 const 0;
#X obj 399 1 ctlin 43;
#X obj 399 20 sel 127;
#X obj 399 40 bng 15 250 50 0 empty empty empty 17 7 0 10 -262144 -1
-1;
#X obj 399 59 f;
#X obj 428 60 + 1;
#X obj 394 104 sel 0 1 2 3 4;
#X obj 399 83 % 5;
#X floatatom 429 82 5 0 0 0 - - -;
#X msg 196 44 0;
#X msg 304 44 12;
#X msg 222 44 -12;
#X msg 249 44 -24;
#X msg 276 44 -32;
#X connect 0 0 35 0;
#X connect 1 0 16 0;
#X connect 2 0 1 1;
#X connect 2 0 21 1;
#X connect 3 0 47 0;
#X connect 5 0 2 0;
#X connect 6 0 3 0;
#X connect 7 0 0 0;
#X connect 8 0 9 0;
#X connect 9 0 34 0;
#X connect 10 0 28 0;
#X connect 11 0 27 0;
#X connect 12 0 16 1;
#X connect 12 0 22 1;
#X connect 13 0 12 0;
#X connect 14 0 44 0;
#X connect 15 0 14 0;
#X connect 16 0 49 0;
#X connect 17 0 18 0;
#X connect 18 0 19 0;
#X connect 19 0 52 0;
#X connect 19 0 53 0;
#X connect 20 0 21 0;
#X connect 20 0 32 0;
#X connect 21 0 22 0;
#X connect 22 0 50 0;
#X connect 23 0 24 0;
#X connect 24 0 19 1;
#X connect 26 0 25 0;
#X connect 27 0 10 0;
#X connect 27 1 10 1;
#X connect 28 0 43 0;
#X connect 29 0 20 0;
#X connect 30 0 31 0;
#X connect 31 0 17 0;
#X connect 32 0 33 0;
#X connect 33 0 23 0;
#X connect 34 0 36 0;
#X connect 35 0 8 0;
#X connect 36 0 10 0;
#X connect 43 0 1 0;
#X connect 43 0 30 0;
#X connect 43 0 29 0;
#X connect 44 0 13 0;
#X connect 47 0 11 0;
#X connect 47 0 5 0;
#X connect 49 0 18 1;
#X connect 50 0 24 1;
#X connect 55 0 51 0;
#X connect 56 0 62 0;
#X connect 57 0 59 0;
#X connect 58 0 60 0;
#X connect 59 0 58 0;
#X connect 60 0 55 0;
#X connect 61 0 57 0;
#X connect 62 0 61 0;
#X connect 62 1 57 1;
#X connect 63 0 58 1;
#X connect 68 0 67 0;
#X connect 69 0 67 0;
#X connect 70 0 67 0;
#X connect 71 0 76 0;
#X connect 72 0 74 0;
#X connect 72 1 73 1;
#X connect 72 2 75 0;
#X connect 74 0 73 0;
#X connect 75 0 84 0;
#X connect 76 0 72 0;
#X connect 77 0 79 0;
#X connect 78 0 76 0;
#X connect 79 0 80 0;
#X connect 80 0 78 0;
#X connect 81 0 77 0;
#X connect 82 0 71 0;
#X connect 82 0 69 0;
#X connect 83 0 71 1;
#X connect 83 0 70 0;
#X connect 84 0 66 0;
#X connect 85 0 82 0;
#X connect 85 0 91 0;
#X connect 86 0 83 0;
#X connect 87 0 91 0;
#X connect 88 0 85 0;
#X connect 89 0 86 0;
#X connect 90 0 87 0;
#X connect 92 0 93 0;
#X connect 93 0 94 0;
#X connect 94 0 95 0;
#X connect 95 0 96 0;
#X connect 95 0 98 0;
#X connect 96 0 95 1;
#X connect 97 0 100 0;
#X connect 97 1 102 0;
#X connect 97 2 103 0;
#X connect 97 3 104 0;
#X connect 97 4 101 0;
#X connect 98 0 99 0;
#X connect 98 0 97 0;
#X connect 100 0 0 0;
#X connect 101 0 0 0;
#X connect 102 0 0 0;
#X connect 103 0 0 0;
#X connect 104 0 0 0;
#X restore 1258 500 pd pitchshifter;
#X obj 1289 553 *~ 0;
#X obj 1322 553 *~ 0;
#X obj 1368 494 hsl 128 15 0 127 0 0 empty empty empty -2 -8 0 10 -262144
-1 -1 0 1;
#X obj 1365 512 / 127;
#X floatatom 1365 530 5 0 0 0 - - -;
#X obj 1365 474 ctlin 3 0;
#X text 1263 474 ^^^ needs work;
#N canvas 0 23 1288 693 begintones 0;
#X obj 525 239 osc~;
#X obj 546 264 tgl 18 0 empty empty empty 0 -6 0 8 -262144 -1 -1 0
1;
#X obj 524 343 *~;
#X obj 307 240 osc~;
#X obj 350 240 osc~;
#X obj 371 265 tgl 18 0 empty empty empty 0 -6 0 8 -262144 -1 -1 1
1;
#X obj 349 343 *~;
#X obj 350 217 * 2;
#X obj 393 240 osc~;
#X obj 414 265 tgl 18 0 empty empty empty 0 -6 0 8 -262144 -1 -1 1
1;
#X obj 392 343 *~;
#X obj 436 240 osc~;
#X obj 457 265 tgl 18 0 empty empty empty 0 -6 0 8 -262144 -1 -1 0
1;
#X obj 435 343 *~;
#X obj 479 240 osc~;
#X obj 500 265 tgl 18 0 empty empty empty 0 -6 0 8 -262144 -1 -1 1
1;
#X obj 478 343 *~;
#X obj 307 217 * 1;
#X obj 393 217 * 3;
#X obj 436 217 * 4;
#X obj 479 217 * 5;
#X obj 525 216 * 6;
#X obj 250 241 osc~;
#X floatatom 249 218 6 0 200 0 - - -;
#X obj 262 360 +~;
#X obj 257 426 *~;
#X obj 78 294 line~;
#X obj 234 449 +~;
#X obj 250 477 *~;
#X obj 90 186 bng 15 250 50 0 empty empty empty 17 7 0 10 -262144 -1
-1;
#X msg 74 252 1 1;
#X obj 109 218 delay 10;
#X obj 307 162 * 2.25;
#X obj 271 455 *~;
#X obj 500 92 bng 15 250 50 0 empty empty empty 17 7 0 10 -262144 -1
-1;
#X obj 392 132 random 2;
#X obj 448 132 random 2;
#X obj 503 132 random 2;
#X obj 558 132 random 2;
#X obj 613 131 random 2;
#X obj 563 75 loadbang;
#X msg 108 253 0 1500;
#X text 260 147 pitch;
#X obj 254 582 outlet~;
#X obj 257 545 *~ 0.02;
#X obj 257 523 hip~ 10;
#X text 88 138 bang to chime;
#X msg 355 295 \$1 10;
#X obj 355 316 line~;
#X msg 398 295 \$1 10;
#X obj 398 316 line~;
#X msg 442 295 \$1 10;
#X obj 442 316 line~;
#X msg 485 295 \$1 10;
#X obj 485 316 line~;
#X msg 531 295 \$1 10;
#X obj 531 316 line~;
#X obj 77 94 t b b;
#X obj 242 67 loadbang;
#X obj 52 47 tgl 15 0 empty empty empty 17 7 0 10 -262144 -1 -1 1 1
;
#X obj 56 69 metro 2000;
#X msg 233 188 40;
#X obj 772 76 metro 3000;
#X obj 1298 251 osc~;
#X obj 1319 276 tgl 18 0 empty empty empty 0 -6 0 8 -262144 -1 -1 0
1;
#X obj 1297 355 *~;
#X obj 1080 252 osc~;
#X obj 1123 252 osc~;
#X obj 1144 277 tgl 18 0 empty empty empty 0 -6 0 8 -262144 -1 -1 1
1;
#X obj 1122 355 *~;
#X obj 1123 229 * 2;
#X obj 1166 252 osc~;
#X obj 1187 277 tgl 18 0 empty empty empty 0 -6 0 8 -262144 -1 -1 0
1;
#X obj 1165 355 *~;
#X obj 1209 252 osc~;
#X obj 1230 277 tgl 18 0 empty empty empty 0 -6 0 8 -262144 -1 -1 1
1;
#X obj 1208 355 *~;
#X obj 1252 252 osc~;
#X obj 1273 277 tgl 18 0 empty empty empty 0 -6 0 8 -262144 -1 -1 1
1;
#X obj 1251 355 *~;
#X obj 1080 229 * 1;
#X obj 1166 229 * 3;
#X obj 1209 229 * 4;
#X obj 1252 229 * 5;
#X obj 1298 228 * 6;
#X obj 1023 253 osc~;
#X floatatom 1022 230 6 0 200 0 - - -;
#X obj 1035 372 +~;
#X obj 1030 438 *~;
#X obj 851 306 line~;
#X obj 1007 461 +~;
#X obj 1023 489 *~;
#X obj 863 198 bng 15 250 50 0 empty empty empty 17 7 0 10 -262144
-1 -1;
#X msg 847 264 1 1;
#X obj 882 230 delay 10;
#X obj 1080 174 * 2.25;
#X obj 1044 467 *~;
#X obj 1273 104 bng 15 250 50 0 empty empty empty 17 7 0 10 -262144
-1 -1;
#X obj 1165 144 random 2;
#X obj 1221 144 random 2;
#X obj 1276 144 random 2;
#X obj 1331 144 random 2;
#X obj 1386 143 random 2;
#X obj 1336 87 loadbang;
#X msg 881 265 0 1500;
#X text 1033 159 pitch;
#X obj 1027 594 outlet~;
#X obj 1029 557 *~ 0.02;
#X obj 1030 535 hip~ 10;
#X text 861 150 bang to chime;
#X msg 1128 307 \$1 10;
#X obj 1128 328 line~;
#X msg 1171 307 \$1 10;
#X obj 1171 328 line~;
#X msg 1215 307 \$1 10;
#X obj 1215 328 line~;
#X msg 1258 307 \$1 10;
#X obj 1258 328 line~;
#X msg 1304 307 \$1 10;
#X obj 1304 328 line~;
#X obj 850 106 t b b;
#X msg 1006 200 60;
#X obj 515 -4 ctlin 58 0;
#X obj 515 16 sel 127;
#X obj 515 39 bng 15 250 50 0 empty empty empty 17 7 0 10 -262144 -1
-1;
#X obj 732 455 ctlin 22 0;
#X obj 738 478 hsl 128 15 0 127 0 0 empty empty empty -2 -8 0 10 -262144
-1 -1 0 1;
#X obj 735 496 / 127;
#X floatatom 735 514 5 0 0 0 - - -;
#X obj 665 548 *~;
#X obj 694 548 *~;
#X connect 0 0 2 0;
#X connect 1 0 55 0;
#X connect 2 0 24 0;
#X connect 3 0 24 0;
#X connect 4 0 6 0;
#X connect 5 0 47 0;
#X connect 6 0 24 0;
#X connect 7 0 4 0;
#X connect 8 0 10 0;
#X connect 9 0 49 0;
#X connect 10 0 24 0;
#X connect 11 0 13 0;
#X connect 12 0 51 0;
#X connect 13 0 24 0;
#X connect 14 0 16 0;
#X connect 15 0 53 0;
#X connect 16 0 24 0;
#X connect 17 0 3 0;
#X connect 18 0 8 0;
#X connect 19 0 11 0;
#X connect 20 0 14 0;
#X connect 21 0 0 0;
#X connect 22 0 27 0;
#X connect 23 0 22 0;
#X connect 23 0 32 0;
#X connect 24 0 25 0;
#X connect 25 0 27 1;
#X connect 26 0 25 1;
#X connect 26 0 33 0;
#X connect 26 0 33 1;
#X connect 27 0 28 0;
#X connect 28 0 45 0;
#X connect 29 0 30 0;
#X connect 29 0 31 0;
#X connect 30 0 26 0;
#X connect 31 0 41 0;
#X connect 32 0 17 0;
#X connect 32 0 7 0;
#X connect 32 0 18 0;
#X connect 32 0 19 0;
#X connect 32 0 20 0;
#X connect 32 0 21 0;
#X connect 33 0 28 1;
#X connect 34 0 35 0;
#X connect 34 0 36 0;
#X connect 34 0 37 0;
#X connect 34 0 38 0;
#X connect 34 0 39 0;
#X connect 35 0 5 0;
#X connect 36 0 9 0;
#X connect 37 0 12 0;
#X connect 38 0 15 0;
#X connect 39 0 1 0;
#X connect 40 0 34 0;
#X connect 41 0 26 0;
#X connect 44 0 129 0;
#X connect 45 0 44 0;
#X connect 47 0 48 0;
#X connect 48 0 6 1;
#X connect 49 0 50 0;
#X connect 50 0 10 1;
#X connect 51 0 52 0;
#X connect 52 0 13 1;
#X connect 53 0 54 0;
#X connect 54 0 16 1;
#X connect 55 0 56 0;
#X connect 56 0 2 1;
#X connect 57 0 34 0;
#X connect 57 1 29 0;
#X connect 58 0 61 0;
#X connect 58 0 59 0;
#X connect 59 0 60 0;
#X connect 59 0 62 0;
#X connect 60 0 57 0;
#X connect 61 0 23 0;
#X connect 62 0 120 0;
#X connect 62 0 121 0;
#X connect 63 0 65 0;
#X connect 64 0 118 0;
#X connect 65 0 87 0;
#X connect 66 0 87 0;
#X connect 67 0 69 0;
#X connect 68 0 110 0;
#X connect 69 0 87 0;
#X connect 70 0 67 0;
#X connect 71 0 73 0;
#X connect 72 0 112 0;
#X connect 73 0 87 0;
#X connect 74 0 76 0;
#X connect 75 0 114 0;
#X connect 76 0 87 0;
#X connect 77 0 79 0;
#X connect 78 0 116 0;
#X connect 79 0 87 0;
#X connect 80 0 66 0;
#X connect 81 0 71 0;
#X connect 82 0 74 0;
#X connect 83 0 77 0;
#X connect 84 0 63 0;
#X connect 85 0 90 0;
#X connect 86 0 85 0;
#X connect 86 0 95 0;
#X connect 87 0 88 0;
#X connect 88 0 90 1;
#X connect 89 0 88 1;
#X connect 89 0 96 0;
#X connect 89 0 96 1;
#X connect 90 0 91 0;
#X connect 91 0 108 0;
#X connect 92 0 93 0;
#X connect 92 0 94 0;
#X connect 93 0 89 0;
#X connect 94 0 104 0;
#X connect 95 0 80 0;
#X connect 95 0 70 0;
#X connect 95 0 81 0;
#X connect 95 0 82 0;
#X connect 95 0 83 0;
#X connect 95 0 84 0;
#X connect 96 0 91 1;
#X connect 97 0 98 0;
#X connect 97 0 99 0;
#X connect 97 0 100 0;
#X connect 97 0 101 0;
#X connect 97 0 102 0;
#X connect 98 0 68 0;
#X connect 99 0 72 0;
#X connect 100 0 75 0;
#X connect 101 0 78 0;
#X connect 102 0 64 0;
#X connect 103 0 97 0;
#X connect 104 0 89 0;
#X connect 107 0 130 0;
#X connect 108 0 107 0;
#X connect 110 0 111 0;
#X connect 111 0 69 1;
#X connect 112 0 113 0;
#X connect 113 0 73 1;
#X connect 114 0 115 0;
#X connect 115 0 76 1;
#X connect 116 0 117 0;
#X connect 117 0 79 1;
#X connect 118 0 119 0;
#X connect 119 0 65 1;
#X connect 120 0 97 0;
#X connect 120 1 92 0;
#X connect 121 0 86 0;
#X connect 122 0 123 0;
#X connect 123 0 124 0;
#X connect 124 0 59 0;
#X connect 125 0 126 0;
#X connect 126 0 127 0;
#X connect 127 0 128 0;
#X connect 128 0 129 1;
#X connect 128 0 130 1;
#X connect 129 0 43 0;
#X connect 130 0 106 0;
#X restore 1234 363 pd begintones;
#X connect 0 0 68 0;
#X connect 0 0 108 0;
#X connect 0 0 133 0;
#X connect 0 0 165 0;
#X connect 0 0 178 0;
#X connect 1 0 165 0;
#X connect 2 0 6 0;
#X connect 3 0 4 0;
#X connect 4 0 115 0;
#X connect 5 0 7 0;
#X connect 5 0 2 0;
#X connect 6 0 3 0;
#X connect 7 0 169 0;
#X connect 8 0 165 0;
#X connect 9 0 166 0;
#X connect 10 0 166 0;
#X connect 11 0 69 0;
#X connect 11 0 109 0;
#X connect 11 0 134 0;
#X connect 11 0 166 0;
#X connect 11 0 178 0;
#X connect 12 0 16 0;
#X connect 13 0 14 0;
#X connect 14 0 116 0;
#X connect 15 0 12 0;
#X connect 15 0 17 0;
#X connect 16 0 13 0;
#X connect 17 0 172 0;
#X connect 19 0 20 0;
#X connect 20 0 34 0;
#X connect 21 0 1 0;
#X connect 21 0 9 0;
#X connect 21 0 25 0;
#X connect 22 0 23 0;
#X connect 23 0 10 0;
#X connect 23 0 8 0;
#X connect 23 0 25 1;
#X connect 24 0 22 0;
#X connect 25 0 30 0;
#X connect 26 0 28 0;
#X connect 26 1 27 1;
#X connect 26 2 29 0;
#X connect 27 0 15 0;
#X connect 27 0 5 0;
#X connect 28 0 27 0;
#X connect 29 0 17 1;
#X connect 29 0 7 1;
#X connect 30 0 26 0;
#X connect 31 0 168 0;
#X connect 31 0 170 0;
#X connect 32 0 31 0;
#X connect 33 0 26 0;
#X connect 34 0 21 0;
#X connect 34 1 33 0;
#X connect 34 2 168 0;
#X connect 34 2 170 0;
#X connect 35 0 68 0;
#X connect 36 0 40 0;
#X connect 37 0 38 0;
#X connect 38 0 121 0;
#X connect 39 0 41 0;
#X connect 39 0 36 0;
#X connect 40 0 37 0;
#X connect 41 0 70 0;
#X connect 42 0 68 0;
#X connect 43 0 69 0;
#X connect 44 0 69 0;
#X connect 45 0 49 0;
#X connect 46 0 47 0;
#X connect 47 0 122 0;
#X connect 48 0 45 0;
#X connect 48 0 50 0;
#X connect 49 0 46 0;
#X connect 50 0 71 0;
#X connect 51 0 63 0;
#X connect 52 0 35 0;
#X connect 52 0 43 0;
#X connect 52 0 55 0;
#X connect 53 0 54 0;
#X connect 54 0 44 0;
#X connect 54 0 42 0;
#X connect 54 0 55 1;
#X connect 55 0 60 0;
#X connect 56 0 58 0;
#X connect 56 1 57 1;
#X connect 56 2 59 0;
#X connect 57 0 48 0;
#X connect 57 0 39 0;
#X connect 58 0 57 0;
#X connect 59 0 50 1;
#X connect 59 0 41 1;
#X connect 60 0 56 0;
#X connect 61 0 66 0;
#X connect 61 0 67 0;
#X connect 62 0 56 0;
#X connect 63 0 52 0;
#X connect 63 1 62 0;
#X connect 63 2 66 0;
#X connect 63 2 67 0;
#X connect 70 0 38 1;
#X connect 71 0 47 1;
#X connect 72 0 51 0;
#X connect 73 0 53 0;
#X connect 74 0 61 0;
#X connect 75 0 108 0;
#X connect 76 0 80 0;
#X connect 77 0 78 0;
#X connect 78 0 127 0;
#X connect 79 0 81 0;
#X connect 79 0 76 0;
#X connect 80 0 77 0;
#X connect 81 0 106 0;
#X connect 82 0 108 0;
#X connect 83 0 109 0;
#X connect 84 0 109 0;
#X connect 85 0 89 0;
#X connect 86 0 87 0;
#X connect 87 0 128 0;
#X connect 88 0 85 0;
#X connect 88 0 90 0;
#X connect 89 0 86 0;
#X connect 90 0 107 0;
#X connect 91 0 103 0;
#X connect 92 0 75 0;
#X connect 92 0 83 0;
#X connect 92 0 95 0;
#X connect 93 0 94 0;
#X connect 94 0 84 0;
#X connect 94 0 82 0;
#X connect 94 0 95 1;
#X connect 95 0 100 0;
#X connect 96 0 98 0;
#X connect 96 1 97 1;
#X connect 96 2 99 0;
#X connect 97 0 88 0;
#X connect 97 0 79 0;
#X connect 98 0 97 0;
#X connect 99 0 90 1;
#X connect 99 0 81 1;
#X connect 100 0 96 0;
#X connect 101 0 110 0;
#X connect 101 0 111 0;
#X connect 102 0 96 0;
#X connect 103 0 92 0;
#X connect 103 1 102 0;
#X connect 103 2 110 0;
#X connect 103 2 111 0;
#X connect 106 0 78 1;
#X connect 107 0 87 1;
#X connect 112 0 91 0;
#X connect 113 0 93 0;
#X connect 114 0 101 0;
#X connect 115 0 142 0;
#X connect 115 0 139 0;
#X connect 116 0 140 0;
#X connect 116 0 139 1;
#X connect 117 0 118 0;
#X connect 118 0 119 0;
#X connect 119 0 115 1;
#X connect 119 0 116 1;
#X connect 120 0 117 0;
#X connect 121 0 142 0;
#X connect 121 0 139 0;
#X connect 122 0 140 0;
#X connect 122 0 139 1;
#X connect 123 0 124 0;
#X connect 124 0 125 0;
#X connect 125 0 121 1;
#X connect 125 0 122 1;
#X connect 126 0 123 0;
#X connect 127 0 142 0;
#X connect 127 0 139 0;
#X connect 128 0 140 0;
#X connect 128 0 139 1;
#X connect 129 0 130 0;
#X connect 130 0 131 0;
#X connect 131 0 127 1;
#X connect 131 0 128 1;
#X connect 132 0 129 0;
#X connect 133 0 142 0;
#X connect 133 0 18 0;
#X connect 133 0 139 0;
#X connect 133 0 163 0;
#X connect 134 0 140 0;
#X connect 134 0 18 1;
#X connect 134 0 139 1;
#X connect 134 0 164 0;
#X connect 135 0 136 0;
#X connect 136 0 137 0;
#X connect 137 0 133 1;
#X connect 137 0 134 1;
#X connect 138 0 135 0;
#X connect 139 0 142 0;
#X connect 139 1 140 0;
#X connect 140 0 18 1;
#X connect 141 0 143 0;
#X connect 141 0 173 0;
#X connect 142 0 18 0;
#X connect 143 0 144 0;
#X connect 144 0 174 0;
#X connect 145 0 146 0;
#X connect 146 0 151 0;
#X connect 147 0 30 0;
#X connect 148 0 152 0;
#X connect 149 0 60 0;
#X connect 150 0 148 0;
#X connect 151 0 175 0;
#X connect 152 0 176 0;
#X connect 153 0 155 0;
#X connect 154 0 100 0;
#X connect 155 0 177 0;
#X connect 156 0 153 0;
#X connect 157 0 162 0;
#X connect 158 0 160 0;
#X connect 159 0 164 3;
#X connect 159 0 163 3;
#X connect 160 0 159 0;
#X connect 161 0 163 2;
#X connect 161 0 164 2;
#X connect 162 0 161 0;
#X connect 163 0 142 0;
#X connect 164 0 140 0;
#X connect 169 0 4 1;
#X connect 172 0 14 1;
#X connect 174 0 142 1;
#X connect 174 0 140 1;
#X connect 175 0 147 0;
#X connect 176 0 149 0;
#X connect 177 0 154 0;
#X connect 178 0 179 0;
#X connect 178 1 180 0;
#X connect 179 0 139 0;
#X connect 179 0 142 0;
#X connect 180 0 139 1;
#X connect 180 0 140 0;
#X connect 181 0 182 0;
#X connect 182 0 183 0;
#X connect 183 0 179 1;
#X connect 183 0 180 1;
#X connect 184 0 181 0;
#X connect 186 0 142 0;
#X connect 186 1 140 0;
